With: Jet Li, Jacky Cheung and Charlie Cho

Na een mislukte poging om zijn vrouw te redden van de kwade 'dokter', neemt Kit Li een baan als bodyguard voor de wereldberoemde acteur Frankie Lane. Maar de geschiedenis herhaalt zich en Kit wordt gedwongen zijn verleden onder ogen te zien als De Dokter en zijn gang een poging doen om de Russische kroonjuwelen te stelen door een luxueus hotel te bezetten.

After failing to save his wife from 'The Doctor', Kit Li is working as a bodyguard and secret stunt double for the cowardly martial arts film star Frankie Lane...

------------------ Dutch Friends ------------------

You can find my Friends at: http://www.Film-Test.nl 
                    
------ They got my dutchs subs ---- and more ------

General:

Complete name                    : Meltdown\Shu Dan Long Wei.avi
Format                           : AVI
Format/Info                      : Audio Video Interleave
File size                        : 1.23 GiB
Duration                         : 1h 37mn
Overall bit rate                 : 1 805 Kbps

Video:

Format                           : MPEG-4 Visual
Format profile                   : Simple@L3
Format settings, BVOP            : No
Format settings, QPel            : No
Format settings, GMC             : No warppoints
Format settings, Matrix          : Default (H.263)
Codec ID                         : XVID
Codec ID/Hint                    : XviD
Duration                         : 1h 37mn
Bit rate                         : 1 347 Kbps
Width                            : 652 pixels
Height                           : 352 pixels
Display aspect ratio             : 1.852
Frame rate                       : 25.000 fps
Color space                      : YUV
Chroma subsampling               : 4:2:0
Bit depth                        : 8 bits
Scan type                        : Progressive
Bits/(Pixel*Frame)               : 0.235
Stream size                      : 936 MiB (75%)
Writing library                  : XviD 1.1.2 (UTC 2006-11-01)

Audio:

Format                           : AC-3
Format/Info                      : Audio Coding 3
Mode extension                   : CM (complete main)
Codec ID                         : 2000
Duration                         : 1h 37mn
Bit rate mode                    : Constant
Bit rate                         : 448 Kbps
Channel(s)                       : 6 channels
Channel positions                : Front: L C R, Side: L R, LFE
Sampling rate                    : 48.0 KHz
Bit depth                        : 16 bits
Stream size                      : 311 MiB (25%)
Alignment                        : Aligned on interleaves
Interleave, duration             : 32 ms (0.80 video frame)
Interleave, preload duration     : 1248 ms



